<?xml version="1.0" encoding="UTF-8"?>
<!DOCTYPE svg PUBLIC "-//W3C//DTD SVG 1.1//EN" "http://www.w3.org/Graphics/SVG/1.1/DTD/svg11.dtd">
<svg xmlns="http://www.w3.org/2000/svg" version="1.1" width="2048px" height="2048px" style="shape-rendering:geometricPrecision; text-rendering:geometricPrecision; image-rendering:optimizeQuality; fill-rule:evenodd; clip-rule:evenodd" xmlns:xlink="http://www.w3.org/1999/xlink">
<g><path style="opacity:0.999" fill="#763d16" d="M 286.5,224.5 C 489.795,375.488 693.128,526.488 896.5,677.5C 899.262,682.457 900.595,687.79 900.5,693.5C 822.873,758.458 745.54,823.791 668.5,889.5C 668.917,884.932 666.917,883.432 662.5,885C 550.798,917.734 439.132,950.567 327.5,983.5C 326.479,984.901 325.479,986.235 324.5,987.5C 300.92,958.413 276.753,929.746 252,901.5C 251.08,898.692 251.913,896.525 254.5,895C 263.5,888.667 272.5,882.333 281.5,876C 268.167,864 254.833,852 241.5,840C 237.907,836.915 234.907,833.415 232.5,829.5C 233.559,826.932 235.226,824.765 237.5,823C 248.236,815.304 258.569,807.137 268.5,798.5C 252.524,786.358 236.69,774.024 221,761.5C 220.257,759.559 220.424,757.726 221.5,756C 232.857,748.321 243.857,740.154 254.5,731.5C 236.182,645.076 218.182,558.576 200.5,472C 226.836,389.325 254.169,306.992 282.5,225C 283.793,224.51 285.127,224.343 286.5,224.5 Z"/></g>
<g><path style="opacity:0.999" fill="#763d16" d="M 1759.5,224.5 C 1761.77,224.141 1763.6,224.808 1765,226.5C 1792.77,308.145 1819.94,389.978 1846.5,472C 1828.82,558.576 1810.82,645.076 1792.5,731.5C 1802.69,739.525 1813.02,747.359 1823.5,755C 1827.04,757.282 1827.37,759.949 1824.5,763C 1808.71,774.29 1793.38,786.124 1778.5,798.5C 1788.38,807.207 1798.71,815.374 1809.5,823C 1811.77,824.765 1813.44,826.932 1814.5,829.5C 1812.09,833.415 1809.09,836.915 1805.5,840C 1792.17,852 1778.83,864 1765.5,876C 1775.6,882.8 1785.43,889.966 1795,897.5C 1795.67,898.833 1795.67,900.167 1795,901.5C 1770.64,930.026 1746.14,958.359 1721.5,986.5C 1720.73,985.828 1720.07,984.995 1719.5,984C 1606.65,950.828 1493.82,917.661 1381,884.5C 1379.7,884.639 1378.87,885.305 1378.5,886.5C 1377.78,886.918 1377.28,887.584 1377,888.5C 1300.35,824.021 1223.85,759.354 1147.5,694.5C 1146.53,692.257 1146.19,689.924 1146.5,687.5C 1147.44,683.675 1148.77,680.009 1150.5,676.5C 1354.04,526.562 1557.04,375.895 1759.5,224.5 Z"/></g>
<g><path style="opacity:0.997" fill="#e3751a" d="M 286.5,224.5 C 459.916,288.972 633.249,353.638 806.5,418.5C 803.867,419.66 803.034,421.66 804,424.5C 835.136,508.742 865.969,593.075 896.5,677.5C 693.128,526.488 489.795,375.488 286.5,224.5 Z"/></g>
<g><path style="opacity:0.997" fill="#e1751a" d="M 1759.5,224.5 C 1557.04,375.895 1354.04,526.562 1150.5,676.5C 1180.7,593.741 1211.2,511.075 1242,428.5C 1243.25,425.923 1243.58,423.257 1243,420.5C 1241.7,419.915 1240.53,419.249 1239.5,418.5C 1412.83,353.833 1586.17,289.167 1759.5,224.5 Z"/></g>
<g><path style="opacity:1" fill="#f5841b" d="M 806.5,418.5 C 950.833,418.5 1095.17,418.5 1239.5,418.5C 1240.53,419.249 1241.7,419.915 1243,420.5C 1243.58,423.257 1243.25,425.923 1242,428.5C 1211.2,511.075 1180.7,593.741 1150.5,676.5C 1148.77,680.009 1147.44,683.675 1146.5,687.5C 1139.12,809.658 1132.12,931.991 1125.5,1054.5C 1122.54,1093 1119.7,1131.67 1117,1170.5C 1116.23,1255.83 1115.89,1341.17 1116,1426.5C 1127.55,1364.27 1140.05,1302.27 1153.5,1240.5C 1155.66,1239.95 1157.66,1239.28 1159.5,1238.5C 1160.79,1238.74 1161.79,1238.4 1162.5,1237.5C 1217.5,1221.5 1272.5,1205.5 1327.5,1189.5C 1330.45,1188.35 1333.45,1187.35 1336.5,1186.5C 1339.94,1187.45 1341.27,1189.78 1340.5,1193.5C 1338.62,1236.52 1336.79,1279.52 1335,1322.5C 1383.11,1229.27 1430.95,1135.94 1478.5,1042.5C 1478.77,1040.62 1478.1,1039.29 1476.5,1038.5C 1444.97,989.462 1412.81,940.795 1380,892.5C 1378.87,890.655 1378.37,888.655 1378.5,886.5C 1378.87,885.305 1379.7,884.639 1381,884.5C 1493.82,917.661 1606.65,950.828 1719.5,984C 1720.07,984.995 1720.73,985.828 1721.5,986.5C 1758.36,1101.24 1795.52,1215.91 1833,1330.5C 1833.5,1332.47 1833.66,1334.47 1833.5,1336.5C 1724.74,1337.16 1616.07,1337.83 1507.5,1338.5C 1448.82,1338.53 1390.15,1339.37 1331.5,1341C 1330.06,1341.38 1329.06,1342.21 1328.5,1343.5C 1268.19,1389.82 1208.19,1436.48 1148.5,1483.5C 1147.83,1483.83 1147.17,1484.17 1146.5,1484.5C 1146.72,1483.32 1146.39,1482.32 1145.5,1481.5C 1135.83,1474.83 1126.17,1468.17 1116.5,1461.5C 1115.74,1462.63 1115.07,1463.79 1114.5,1465C 1053.83,1465.67 993.167,1465.67 932.5,1465C 931.299,1464.1 930.465,1462.93 930,1461.5C 920.587,1468.12 911.087,1474.62 901.5,1481C 900.901,1482.62 900.234,1484.12 899.5,1485.5C 899.167,1484.5 898.5,1483.83 897.5,1483.5C 837.858,1436.86 778.191,1390.2 718.5,1343.5C 717.373,1342.88 716.373,1342.04 715.5,1341C 663.498,1340.14 611.498,1339.31 559.5,1338.5C 444.598,1337.83 329.598,1337.16 214.5,1336.5C 213.402,1335.4 213.235,1334.07 214,1332.5C 251.142,1217.57 287.976,1102.57 324.5,987.5C 325.479,986.235 326.479,984.901 327.5,983.5C 439.132,950.567 550.798,917.734 662.5,885C 666.917,883.432 668.917,884.932 668.5,889.5C 635.091,938.645 602.424,988.311 570.5,1038.5C 568.896,1039.29 568.229,1040.62 568.5,1042.5C 615.974,1135.45 663.474,1228.45 711,1321.5C 710.488,1281.16 709.322,1240.82 707.5,1200.5C 707.667,1196.17 707.833,1191.83 708,1187.5C 709.011,1186.66 710.178,1186.33 711.5,1186.5C 714.285,1188.1 717.285,1189.1 720.5,1189.5C 775.06,1205.81 829.727,1221.81 884.5,1237.5C 885.209,1238.4 886.209,1238.74 887.5,1238.5C 890.245,1239.17 892.745,1240.5 895,1242.5C 906.574,1302.52 918.241,1362.52 930,1422.5C 930.667,1338.5 930.667,1254.5 930,1170.5C 927.582,1133.15 925.082,1095.82 922.5,1058.5C 922.5,1057.17 922.5,1055.83 922.5,1054.5C 915.125,934.17 907.792,813.837 900.5,693.5C 900.595,687.79 899.262,682.457 896.5,677.5C 865.969,593.075 835.136,508.742 804,424.5C 803.034,421.66 803.867,419.66 806.5,418.5 Z"/></g>
<g><path style="opacity:1" fill="#e3751a" d="M 900.5,693.5 C 907.792,813.837 915.125,934.17 922.5,1054.5C 805.184,1048.99 687.85,1043.65 570.5,1038.5C 602.424,988.311 635.091,938.645 668.5,889.5C 745.54,823.791 822.873,758.458 900.5,693.5 Z"/></g>
<g><path style="opacity:1" fill="#e3751a" d="M 1146.5,687.5 C 1146.19,689.924 1146.53,692.257 1147.5,694.5C 1223.85,759.354 1300.35,824.021 1377,888.5C 1377.28,887.584 1377.78,886.918 1378.5,886.5C 1378.37,888.655 1378.87,890.655 1380,892.5C 1412.81,940.795 1444.97,989.462 1476.5,1038.5C 1359.5,1043.81 1242.5,1049.14 1125.5,1054.5C 1132.12,931.991 1139.12,809.658 1146.5,687.5 Z"/></g>
<g><path style="opacity:1" fill="#cc6116" d="M 570.5,1038.5 C 687.85,1043.65 805.184,1048.99 922.5,1054.5C 922.5,1055.83 922.5,1057.17 922.5,1058.5C 911.556,1117.58 900.556,1176.75 889.5,1236C 889.316,1237.38 888.649,1238.21 887.5,1238.5C 886.209,1238.74 885.209,1238.4 884.5,1237.5C 869.656,1203.46 853.823,1169.46 837,1135.5C 798.031,1153.4 759.198,1171.4 720.5,1189.5C 717.285,1189.1 714.285,1188.1 711.5,1186.5C 664.273,1138.03 616.606,1090.03 568.5,1042.5C 568.229,1040.62 568.896,1039.29 570.5,1038.5 Z"/></g>
<g><path style="opacity:1" fill="#cc6116" d="M 1476.5,1038.5 C 1478.1,1039.29 1478.77,1040.62 1478.5,1042.5C 1430.83,1090.17 1383.5,1138.17 1336.5,1186.5C 1333.45,1187.35 1330.45,1188.35 1327.5,1189.5C 1288.98,1171.37 1250.15,1153.7 1211,1136.5C 1206.84,1142.82 1203.17,1149.48 1200,1156.5C 1186.94,1183.29 1174.44,1210.29 1162.5,1237.5C 1161.79,1238.4 1160.79,1238.74 1159.5,1238.5C 1158.35,1238.21 1157.68,1237.38 1157.5,1236C 1146.11,1175.6 1135.44,1115.1 1125.5,1054.5C 1242.5,1049.14 1359.5,1043.81 1476.5,1038.5 Z"/></g>
<g><path style="opacity:1" fill="#e4751e" d="M 568.5,1042.5 C 616.606,1090.03 664.273,1138.03 711.5,1186.5C 710.178,1186.33 709.011,1186.66 708,1187.5C 707.833,1191.83 707.667,1196.17 707.5,1200.5C 709.322,1240.82 710.488,1281.16 711,1321.5C 663.474,1228.45 615.974,1135.45 568.5,1042.5 Z"/></g>
<g><path style="opacity:1" fill="#e4751e" d="M 1478.5,1042.5 C 1430.95,1135.94 1383.11,1229.27 1335,1322.5C 1336.79,1279.52 1338.62,1236.52 1340.5,1193.5C 1341.27,1189.78 1339.94,1187.45 1336.5,1186.5C 1383.5,1138.17 1430.83,1090.17 1478.5,1042.5 Z"/></g>
<g><path style="opacity:1" fill="#e3741e" d="M 922.5,1058.5 C 925.082,1095.82 927.582,1133.15 930,1170.5C 930.667,1254.5 930.667,1338.5 930,1422.5C 918.241,1362.52 906.574,1302.52 895,1242.5C 892.745,1240.5 890.245,1239.17 887.5,1238.5C 888.649,1238.21 889.316,1237.38 889.5,1236C 900.556,1176.75 911.556,1117.58 922.5,1058.5 Z"/></g>
<g><path style="opacity:1" fill="#e4751e" d="M 1125.5,1054.5 C 1135.44,1115.1 1146.11,1175.6 1157.5,1236C 1157.68,1237.38 1158.35,1238.21 1159.5,1238.5C 1157.66,1239.28 1155.66,1239.95 1153.5,1240.5C 1140.05,1302.27 1127.55,1364.27 1116,1426.5C 1115.89,1341.17 1116.23,1255.83 1117,1170.5C 1119.7,1131.67 1122.54,1093 1125.5,1054.5 Z"/></g>
<g><path style="opacity:1" fill="#253446" d="M 884.5,1237.5 C 829.727,1221.81 775.06,1205.81 720.5,1189.5C 759.198,1171.4 798.031,1153.4 837,1135.5C 853.823,1169.46 869.656,1203.46 884.5,1237.5 Z"/></g>
<g><path style="opacity:1" fill="#243446" d="M 1327.5,1189.5 C 1272.5,1205.5 1217.5,1221.5 1162.5,1237.5C 1174.44,1210.29 1186.94,1183.29 1200,1156.5C 1203.17,1149.48 1206.84,1142.82 1211,1136.5C 1250.15,1153.7 1288.98,1171.37 1327.5,1189.5 Z"/></g>
<g><path style="opacity:0.998" fill="#e4751a" d="M 214.5,1336.5 C 329.598,1337.16 444.598,1337.83 559.5,1338.5C 544.496,1338.33 529.496,1338.5 514.5,1339C 570.399,1422.65 626.399,1506.15 682.5,1589.5C 683.075,1591.41 684.075,1593.08 685.5,1594.5C 565.438,1627.02 445.438,1659.85 325.5,1693C 320.91,1694.62 318.077,1693.12 317,1688.5C 282.725,1571.18 248.558,1453.84 214.5,1336.5 Z"/></g>
<g><path style="opacity:0.998" fill="#e4751a" d="M 1833.5,1336.5 C 1799.01,1455.65 1763.67,1574.48 1727.5,1693C 1725.5,1693.67 1723.5,1693.67 1721.5,1693C 1601.62,1659.65 1481.62,1626.82 1361.5,1594.5C 1362.92,1593.08 1363.92,1591.41 1364.5,1589.5C 1420.6,1506.15 1476.6,1422.65 1532.5,1339C 1524.17,1338.5 1515.84,1338.33 1507.5,1338.5C 1616.07,1337.83 1724.74,1337.16 1833.5,1336.5 Z"/></g>
<g><path style="opacity:1" fill="#cd6116" d="M 559.5,1338.5 C 611.498,1339.31 663.498,1340.14 715.5,1341C 716.373,1342.04 717.373,1342.88 718.5,1343.5C 708.387,1423.41 699.054,1503.41 690.5,1583.5C 690.5,1583.83 690.5,1584.17 690.5,1584.5C 689.842,1585.4 689.176,1586.4 688.5,1587.5C 685.768,1585.97 683.768,1586.63 682.5,1589.5C 626.399,1506.15 570.399,1422.65 514.5,1339C 529.496,1338.5 544.496,1338.33 559.5,1338.5 Z"/></g>
<g><path style="opacity:1" fill="#cd6116" d="M 1507.5,1338.5 C 1515.84,1338.33 1524.17,1338.5 1532.5,1339C 1476.6,1422.65 1420.6,1506.15 1364.5,1589.5C 1363.23,1586.63 1361.23,1585.97 1358.5,1587.5C 1357.82,1586.4 1357.16,1585.4 1356.5,1584.5C 1356.5,1584.17 1356.5,1583.83 1356.5,1583.5C 1347.82,1503.42 1338.49,1423.42 1328.5,1343.5C 1329.06,1342.21 1330.06,1341.38 1331.5,1341C 1390.15,1339.37 1448.82,1338.53 1507.5,1338.5 Z"/></g>
<g><path style="opacity:1" fill="#e3761b" d="M 718.5,1343.5 C 778.191,1390.2 837.858,1436.86 897.5,1483.5C 828.622,1517.11 759.622,1550.44 690.5,1583.5C 699.054,1503.41 708.387,1423.41 718.5,1343.5 Z"/></g>
<g><path style="opacity:1" fill="#e3761b" d="M 1328.5,1343.5 C 1338.49,1423.42 1347.82,1503.42 1356.5,1583.5C 1287.14,1550.15 1217.8,1516.82 1148.5,1483.5C 1208.19,1436.48 1268.19,1389.82 1328.5,1343.5 Z"/></g>
<g><path style="opacity:1" fill="#161616" d="M 1146.5,1484.5 C 1152.47,1532.13 1158.13,1579.8 1163.5,1627.5C 1161.12,1628.83 1158.79,1628.66 1156.5,1627C 1152.47,1622.63 1148.13,1618.63 1143.5,1615C 1063.16,1614.17 982.831,1614.33 902.5,1615.5C 898.041,1619.46 893.708,1623.62 889.5,1628C 887.866,1628.49 886.199,1628.66 884.5,1628.5C 884.5,1626.5 884.5,1624.5 884.5,1622.5C 889.68,1576.85 894.68,1531.19 899.5,1485.5C 900.234,1484.12 900.901,1482.62 901.5,1481C 911.087,1474.62 920.587,1468.12 930,1461.5C 930.465,1462.93 931.299,1464.1 932.5,1465C 993.167,1465.67 1053.83,1465.67 1114.5,1465C 1115.07,1463.79 1115.74,1462.63 1116.5,1461.5C 1126.17,1468.17 1135.83,1474.83 1145.5,1481.5C 1146.39,1482.32 1146.72,1483.32 1146.5,1484.5 Z"/></g>
<g><path style="opacity:1" fill="#d6c0b2" d="M 897.5,1483.5 C 898.5,1483.83 899.167,1484.5 899.5,1485.5C 894.68,1531.19 889.68,1576.85 884.5,1622.5C 884.698,1641.33 884.364,1660.33 883.5,1679.5C 819.289,1649.05 755.122,1618.72 691,1588.5C 690.51,1587.21 690.343,1585.87 690.5,1584.5C 690.5,1584.17 690.5,1583.83 690.5,1583.5C 759.622,1550.44 828.622,1517.11 897.5,1483.5 Z"/></g>
<g><path style="opacity:1" fill="#d6c0b2" d="M 1148.5,1483.5 C 1217.8,1516.82 1287.14,1550.15 1356.5,1583.5C 1356.5,1583.83 1356.5,1584.17 1356.5,1584.5C 1357.04,1587.24 1356.04,1589.07 1353.5,1590C 1290.12,1619.74 1226.79,1649.57 1163.5,1679.5C 1162.33,1662.17 1162.33,1644.83 1163.5,1627.5C 1158.13,1579.8 1152.47,1532.13 1146.5,1484.5C 1147.17,1484.17 1147.83,1483.83 1148.5,1483.5 Z"/></g>
<g><path style="opacity:0.997" fill="#bfac9d" d="M 690.5,1584.5 C 690.343,1585.87 690.51,1587.21 691,1588.5C 755.122,1618.72 819.289,1649.05 883.5,1679.5C 884.364,1660.33 884.698,1641.33 884.5,1622.5C 884.5,1624.5 884.5,1626.5 884.5,1628.5C 886.199,1628.66 887.866,1628.49 889.5,1628C 893.708,1623.62 898.041,1619.46 902.5,1615.5C 982.831,1614.33 1063.16,1614.17 1143.5,1615C 1148.13,1618.63 1152.47,1622.63 1156.5,1627C 1158.79,1628.66 1161.12,1628.83 1163.5,1627.5C 1162.33,1644.83 1162.33,1662.17 1163.5,1679.5C 1226.79,1649.57 1290.12,1619.74 1353.5,1590C 1356.04,1589.07 1357.04,1587.24 1356.5,1584.5C 1357.16,1585.4 1357.82,1586.4 1358.5,1587.5C 1361.23,1585.97 1363.23,1586.63 1364.5,1589.5C 1363.92,1591.41 1362.92,1593.08 1361.5,1594.5C 1338.37,1613.12 1315.37,1631.95 1292.5,1651C 1244.83,1684 1197.17,1717 1149.5,1750C 1065.5,1750.67 981.5,1750.67 897.5,1750C 849.833,1717 802.167,1684 754.5,1651C 731.626,1631.95 708.626,1613.12 685.5,1594.5C 684.075,1593.08 683.075,1591.41 682.5,1589.5C 683.768,1586.63 685.768,1585.97 688.5,1587.5C 689.176,1586.4 689.842,1585.4 690.5,1584.5 Z"/></g>
</svg>
